<?xml version="1.0" standalone="no"?>
<!DOCTYPE svg PUBLIC "-//W3C//DTD SVG 1.1//EN" "http://www.w3.org/Graphics/SVG/1.1/DTD/svg11.dtd">
<svg viewBox="0 0 565.000000 398.000000" version="1.1" xmlns="http://www.w3.org/2000/svg" xmlns:xlink="http://www.w3.org/1999/xlink">
	<polyline fill="none" stroke="rgb(229,229,229)" stroke-width="1" stroke-opacity="1" points="75.000000,56.000000 75.000000,358.000000"/>
	<polyline fill="none" stroke="rgb(229,229,229)" stroke-width="1" stroke-opacity="1" points="120.000000,56.000000 120.000000,358.000000"/>
	<polyline fill="none" stroke="rgb(229,229,229)" stroke-width="1" stroke-opacity="1" points="165.000000,56.000000 165.000000,358.000000"/>
	<polyline fill="none" stroke="rgb(229,229,229)" stroke-width="1" stroke-opacity="1" points="210.000000,56.000000 210.000000,358.000000"/>
	<polyline fill="none" stroke="rgb(229,229,229)" stroke-width="1" stroke-opacity="1" points="255.000000,56.000000 255.000000,358.000000"/>
	<polyline fill="none" stroke="rgb(229,229,229)" stroke-width="1" stroke-opacity="1" points="300.000000,56.000000 300.000000,358.000000"/>
	<polyline fill="none" stroke="rgb(229,229,229)" stroke-width="1" stroke-opacity="1" points="345.000000,56.000000 345.000000,358.000000"/>
	<polyline fill="none" stroke="rgb(229,229,229)" stroke-width="1" stroke-opacity="1" points="390.000000,56.000000 390.000000,358.000000"/>
	<polyline fill="none" stroke="rgb(229,229,229)" stroke-width="1" stroke-opacity="1" points="435.000000,56.000000 435.000000,358.000000"/>
	<polyline fill="none" stroke="rgb(229,229,229)" stroke-width="1" stroke-opacity="1" points="480.000000,56.000000 480.000000,358.000000"/>
	<polyline fill="none" stroke="rgb(229,229,229)" stroke-width="1" stroke-opacity="1" points="525.000000,56.000000 525.000000,358.000000"/>
	<polyline fill="none" stroke="rgb(229,229,229)" stroke-width="1" stroke-opacity="1" points="75.000000,358.000000 525.000000,358.000000"/>
	<polyline fill="none" stroke="rgb(229,229,229)" stroke-width="1" stroke-opacity="1" points="75.000000,282.500000 525.000000,282.500000"/>
	<polyline fill="none" stroke="rgb(229,229,229)" stroke-width="1" stroke-opacity="1" points="75.000000,207.000000 525.000000,207.000000"/>
	<polyline fill="none" stroke="rgb(229,229,229)" stroke-width="1" stroke-opacity="1" points="75.000000,131.500000 525.000000,131.500000"/>
	<polyline fill="none" stroke="rgb(229,229,229)" stroke-width="1" stroke-opacity="1" points="75.000000,56.000000 525.000000,56.000000"/>
	<polyline fill="none" stroke="rgb(192,192,192)" stroke-width="1" stroke-opacity="1" points="75.000000,207.000000 525.000000,207.000000"/>
	<polyline fill="none" stroke="rgb(0,0,0)" stroke-width="1" stroke-opacity="1" points="75.000000,358.000000 525.000000,358.000000"/>
	<polyline fill="none" stroke="rgb(0,0,0)" stroke-width="1" stroke-opacity="1" points="525.000000,358.000000 525.000000,56.000000"/>
	<polyline fill="none" stroke="rgb(0,0,0)" stroke-width="1" stroke-opacity="1" points="525.000000,56.000000 75.000000,56.000000"/>
	<polyline fill="none" stroke="rgb(0,0,0)" stroke-width="1" stroke-opacity="1" points="75.000000,56.000000 75.000000,358.000000"/>
	<polyline fill="none" stroke="rgb(0,0,0)" stroke-width="1" stroke-opacity="1" points="75.000000,358.000000 75.000000,364.000000"/>
	<polyline fill="none" stroke="rgb(0,0,0)" stroke-width="1" stroke-opacity="1" points="120.000000,358.000000 120.000000,364.000000"/>
	<polyline fill="none" stroke="rgb(0,0,0)" stroke-width="1" stroke-opacity="1" points="165.000000,358.000000 165.000000,364.000000"/>
	<polyline fill="none" stroke="rgb(0,0,0)" stroke-width="1" stroke-opacity="1" points="210.000000,358.000000 210.000000,364.000000"/>
	<polyline fill="none" stroke="rgb(0,0,0)" stroke-width="1" stroke-opacity="1" points="255.000000,358.000000 255.000000,364.000000"/>
	<polyline fill="none" stroke="rgb(0,0,0)" stroke-width="1" stroke-opacity="1" points="300.000000,358.000000 300.000000,364.000000"/>
	<polyline fill="none" stroke="rgb(0,0,0)" stroke-width="1" stroke-opacity="1" points="345.000000,358.000000 345.000000,364.000000"/>
	<polyline fill="none" stroke="rgb(0,0,0)" stroke-width="1" stroke-opacity="1" points="390.000000,358.000000 390.000000,364.000000"/>
	<polyline fill="none" stroke="rgb(0,0,0)" stroke-width="1" stroke-opacity="1" points="435.000000,358.000000 435.000000,364.000000"/>
	<polyline fill="none" stroke="rgb(0,0,0)" stroke-width="1" stroke-opacity="1" points="480.000000,358.000000 480.000000,364.000000"/>
	<polyline fill="none" stroke="rgb(0,0,0)" stroke-width="1" stroke-opacity="1" points="525.000000,358.000000 525.000000,364.000000"/>
	<polyline fill="none" stroke="rgb(0,0,0)" stroke-width="1" stroke-opacity="1" points="75.000000,358.000000 75.000000,367.600000"/>
	<text x="75" y="382" fill="rgb(0,0,0)" dominant-baseline="central" font-size="11" font-family="Arial" text-anchor="middle">0</text>
	<polyline fill="none" stroke="rgb(0,0,0)" stroke-width="1" stroke-opacity="1" points="300.000000,358.000000 300.000000,367.600000"/>
	<text x="300" y="382" fill="rgb(0,0,0)" dominant-baseline="central" font-size="11" font-family="Arial" text-anchor="middle">50</text>
	<polyline fill="none" stroke="rgb(0,0,0)" stroke-width="1" stroke-opacity="1" points="525.000000,358.000000 525.000000,367.600000"/>
	<text x="525" y="382" fill="rgb(0,0,0)" dominant-baseline="central" font-size="11" font-family="Arial" text-anchor="middle">100</text>
	<polyline fill="none" stroke="rgb(0,0,0)" stroke-width="1" stroke-opacity="1" points="69.000000,358.000000 75.000000,358.000000"/>
	<polyline fill="none" stroke="rgb(0,0,0)" stroke-width="1" stroke-opacity="1" points="69.000000,282.500000 75.000000,282.500000"/>
	<polyline fill="none" stroke="rgb(0,0,0)" stroke-width="1" stroke-opacity="1" points="69.000000,207.000000 75.000000,207.000000"/>
	<polyline fill="none" stroke="rgb(0,0,0)" stroke-width="1" stroke-opacity="1" points="69.000000,131.500000 75.000000,131.500000"/>
	<polyline fill="none" stroke="rgb(0,0,0)" stroke-width="1" stroke-opacity="1" points="69.000000,56.000000 75.000000,56.000000"/>
	<rect fill="none" stroke="none" stroke-dasharray="none" stroke-width="1" stroke-opacity="1" x="-18" y="346" width="81" height="24"/>
	<polyline fill="none" stroke="rgb(0,0,0)" stroke-width="1" stroke-opacity="1" points="65.400000,358.000000 75.000000,358.000000"/>
	<text x="63" y="358" fill="rgb(0,0,0)" dominant-baseline="central" font-size="11" font-family="Arial" text-anchor="end">-10</text>
	<polyline fill="none" stroke="rgb(0,0,0)" stroke-width="1" stroke-opacity="1" points="65.400000,282.500000 75.000000,282.500000"/>
	<text x="63" y="282.5" fill="rgb(0,0,0)" dominant-baseline="central" font-size="11" font-family="Arial" text-anchor="end">-5</text>
	<polyline fill="none" stroke="rgb(0,0,0)" stroke-width="1" stroke-opacity="1" points="65.400000,207.000000 75.000000,207.000000"/>
	<text x="63" y="207" fill="rgb(0,0,0)" dominant-baseline="central" font-size="11" font-family="Arial" text-anchor="end">0</text>
	<polyline fill="none" stroke="rgb(0,0,0)" stroke-width="1" stroke-opacity="1" points="65.400000,131.500000 75.000000,131.500000"/>
	<text x="63" y="131.5" fill="rgb(0,0,0)" dominant-baseline="central" font-size="11" font-family="Arial" text-anchor="end">5</text>
	<polyline fill="none" stroke="rgb(0,0,0)" stroke-width="1" stroke-opacity="1" points="65.400000,56.000000 75.000000,56.000000"/>
	<text x="63" y="56" fill="rgb(0,0,0)" dominant-baseline="central" font-size="11" font-family="Arial" text-anchor="end">10</text>
	<rect fill="rgb(255,255,255)" stroke="none" stroke-opacity="0.7" x="75" y="28" width="227" height="15"/>
	<polyline fill="none" stroke="rgb(28,108,200)" stroke-width="1" stroke-opacity="1" points="75.000000,45.000000 105.000000,45.000000"/>
	<text x="110" y="45" fill="rgb(0,0,0)" dominant-baseline="central" font-size="11" font-family="Arial" text-anchor="start">capacitor.dv</text>
	<polyline fill="none" stroke="rgb(238,46,47)" stroke-width="1" stroke-opacity="1" points="234.000000,45.000000 264.000000,45.000000"/>
	<text x="269" y="45" fill="rgb(0,0,0)" dominant-baseline="central" font-size="11" font-family="Arial" text-anchor="start">resistor.dv</text>
	<polyline fill="none" stroke="rgb(0,140,72)" stroke-width="1" stroke-opacity="1" points="377.000000,45.000000 407.000000,45.000000"/>
	<text x="412" y="45" fill="rgb(0,0,0)" dominant-baseline="central" font-size="11" font-family="Arial" text-anchor="start">resistor1.dv</text>
	<clipPath id="clipArea1">
		<rect x="75" y="56" width="450" height="302">
		</rect>
	</clipPath>
	<polyline fill="none" stroke="rgb(28,108,200)" stroke-width="1" stroke-opacity="1" clip-path="url(#clipArea1)" points="75.000000,207.000000 75.031514,207.000000 75.031514,207.000000 75.900000,206.418392 76.800000,203.055050 77.700000,197.131792 78.600000,189.250684 79.500000,179.967868 80.400000,169.782073 81.300000,159.139681 82.200000,148.437098 83.100000,138.028235 84.000000,128.225892 84.900000,119.303944 85.800000,111.497889 86.700000,105.005244 87.600000,99.984703 88.500000,96.552327 89.400000,94.764824 90.300000,94.454486 90.561794,94.466302 90.561794,94.466302 91.200000,94.466302 92.100000,94.466294 93.000000,94.466287 93.899999,94.466287 94.800000,94.466280 95.700000,94.466273 96.600001,94.466273 97.500000,94.466266 98.399999,94.466258 99.300000,94.466258 100.200000,94.466251 101.100001,94.466244 102.000000,94.466237 102.899999,94.466237 103.800000,94.466230 104.700000,94.466222 105.600001,94.466222 106.500000,94.466215 107.399999,94.466208 108.300000,94.466208 109.200000,94.466201 110.100001,94.466194 111.000000,94.466194 111.899999,94.466186 112.799998,94.466179 113.700002,94.466179 114.600001,94.466172 115.500000,94.466165 116.399999,94.466158 117.299998,94.466158 118.200002,94.466150 119.100001,94.466143 120.000000,94.466143 120.899999,94.466136 121.799998,94.466129 122.700002,94.466122 123.600001,94.466122 124.500000,94.466114 125.399999,94.466107 126.299998,94.466100 126.938227,94.466100 126.938227,94.466100 127.200002,94.466014 128.100001,94.162552 129.000000,92.803233 129.899999,90.719980 130.799998,88.420641 131.700002,86.345582 132.600001,84.859114 133.500000,84.194358 134.399999,84.154282 134.491997,84.156946 134.491997,84.156946 135.299998,84.156932 136.200002,84.156932 137.100001,84.156932 138.000000,84.156917 138.899999,84.156917 139.799998,84.156917 140.700002,84.156903 141.600001,84.156903 142.500000,84.156903 143.399999,84.156888 144.299998,84.156888 145.200002,84.156888 146.100001,84.156874 147.000000,84.156874 147.900003,84.156874 148.799998,84.156860 149.700002,84.156860 150.599997,84.156860 151.500000,84.156845 152.400003,84.156845 153.299998,84.156845 154.200002,84.156831 155.099997,84.156831 156.000000,84.156831 156.900003,84.156816 157.799998,84.156816 158.700002,84.156816 159.599997,84.156802 160.500000,84.156802 161.400003,84.156802 162.299998,84.156788 163.200002,84.156788 164.099997,84.156773 165.000000,84.156773 165.900003,84.156773 166.799998,84.156759 167.700002,84.156759 168.599997,84.156759 169.500000,84.156744 170.400003,84.156744 171.299998,84.156744 172.200002,84.156730 173.008029,84.156730 173.008029,84.156730 173.099997,84.156730 174.000000,84.094664 174.900003,83.549490 175.799998,82.563000 176.700002,81.560669 177.599997,80.914807 178.500000,80.759714 179.059333,80.757338 179.059333,80.757338 179.400003,80.757338 180.299998,80.757338 181.200002,80.757338 182.099997,80.757323 183.000000,80.757323 183.900003,80.757309 184.799998,80.757309 185.700002,80.757309 186.599997,80.757295 187.500000,80.757295 188.400003,80.757295 189.299998,80.757280 190.200002,80.757280 191.099997,80.757280 192.000000,80.757266 192.900003,80.757266 193.799998,80.757266 194.700002,80.757251 195.599997,80.757251 196.500000,80.757251 197.400003,80.757237 198.299998,80.757237 199.200002,80.757237 200.099997,80.757223 201.000000,80.757223 201.900003,80.757223 202.799998,80.757208 203.700002,80.757208 204.599997,80.757208 205.500000,80.757194 206.400003,80.757194 207.299998,80.757194 208.200002,80.757179 209.099997,80.757179 210.000000,80.757165 210.900003,80.757165 211.799998,80.757165 212.700002,80.757151 213.599997,80.757151 214.500000,80.757151 215.400003,80.757136 216.299998,80.757136 217.200002,80.757136 218.099997,80.757122 218.440693,80.757122 218.440693,80.757122 219.000000,80.756272 219.900003,80.623341 220.800007,80.137095 221.699993,79.570522 222.599997,79.253567 223.500000,79.202230 223.838585,79.200444 223.838585,79.200444 224.400003,79.200444 225.300007,79.200430 226.199993,79.200430 227.099997,79.200430 228.000000,79.200415 228.900003,79.200415 229.800007,79.200415 230.699993,79.200401 231.599997,79.200401 232.500000,79.200386 233.400003,79.200386 234.300007,79.200386 235.199993,79.200372 236.099997,79.200372 237.000000,79.200372 237.900003,79.200358 238.800007,79.200358 239.699993,79.200358 240.599997,79.200343 241.500000,79.200343 242.400003,79.200343 243.300007,79.200329 244.199993,79.200329 245.099997,79.200329 246.000000,79.200314 246.900003,79.200314 247.800007,79.200314 248.699993,79.200300 249.599997,79.200300 250.500000,79.200300 251.400003,79.200286 252.300007,79.200286 253.199993,79.200286 254.099997,79.200271 255.000000,79.200271 255.900003,79.200271 256.800007,79.200257 257.699993,79.200257 258.599997,79.200257 259.500000,79.200242 260.400003,79.200242 261.300007,79.200228 262.199993,79.200228 263.099997,79.200228 263.661449,79.200228 263.661449,79.200228 264.000000,79.200185 264.900003,79.156854 265.800007,78.881344 266.699993,78.515255 267.599997,78.351867 268.500000,78.344566 268.709221,78.344566 268.709221,78.344566 269.400003,78.344566 270.300007,78.344566 271.199993,78.344551 272.099997,78.344551 273.000000,78.344551 273.900003,78.344537 274.800007,78.344537 275.699993,78.344523 276.599997,78.344523 277.500000,78.344523 278.400003,78.344508 279.300007,78.344508 280.199993,78.344508 281.099997,78.344494 282.000000,78.344494 282.900003,78.344494 283.800007,78.344479 284.699993,78.344479 285.599997,78.344479 286.500000,78.344465 287.400003,78.344465 288.300007,78.344465 289.199993,78.344451 290.099997,78.344451 291.000000,78.344451 291.900003,78.344436 292.800007,78.344436 293.699993,78.344436 294.599997,78.344422 295.500000,78.344422 296.400003,78.344422 297.300007,78.344407 298.199993,78.344407 299.099997,78.344407 300.000000,78.344393 300.900003,78.344393 301.800007,78.344379 302.699993,78.344379 303.599997,78.344379 304.500000,78.344364 305.400003,78.344364 306.300007,78.344364 307.199993,78.344350 308.099997,78.344350 308.790813,78.344350 308.790813,78.344350 309.000000,78.344335 309.900003,78.323469 310.800007,78.147394 311.699993,77.882541 312.599997,77.768330 313.500000,77.756148 313.616301,77.755903 313.616301,77.755903 314.400003,77.755903 315.300007,77.755888 316.199993,77.755888 317.099997,77.755888 318.000000,77.755874 318.900003,77.755874 319.800007,77.755874 320.699993,77.755860 321.599997,77.755860 322.500000,77.755860 323.400003,77.755845 324.300007,77.755845 325.199993,77.755845 326.099997,77.755831 327.000000,77.755831 327.900003,77.755816 328.800007,77.755816 329.699993,77.755816 330.599997,77.755802 331.500000,77.755802 332.400003,77.755802 333.300007,77.755788 334.199993,77.755788 335.099997,77.755788 336.000000,77.755773 336.900003,77.755773 337.800007,77.755773 338.699993,77.755759 339.599997,77.755759 340.500000,77.755759 341.400003,77.755744 342.300007,77.755744 343.199993,77.755744 344.099997,77.755730 345.000000,77.755730 345.900003,77.755730 346.800007,77.755716 347.699993,77.755716 348.599997,77.755716 349.500000,77.755701 350.400003,77.755701 351.300007,77.755701 352.199993,77.755687 353.099997,77.755687 353.883734,77.755687 353.883734,77.755687 354.000000,77.755672 354.900003,77.745549 355.800007,77.623663 356.699993,77.428306 357.599997,77.351753 358.500000,77.344207 358.549164,77.344121 358.549164,77.344121 359.400003,77.344121 360.300007,77.344121 361.199993,77.344107 362.099997,77.344107 363.000000,77.344107 363.899986,77.344092 364.800007,77.344092 365.699993,77.344078 366.600014,77.344078 367.500000,77.344078 368.399986,77.344063 369.300007,77.344063 370.199993,77.344063 371.100014,77.344049 372.000000,77.344049 372.899986,77.344049 373.800007,77.344035 374.699993,77.344035 375.600014,77.344035 376.500000,77.344020 377.399986,77.344020 378.300007,77.344020 379.199993,77.344006 380.100014,77.344006 381.000000,77.344006 381.899986,77.343991 382.800007,77.343991 383.699993,77.343991 384.600014,77.343977 385.500000,77.343977 386.399986,77.343977 387.300007,77.343963 388.199993,77.343963 389.100014,77.343963 390.000000,77.343948 390.899986,77.343948 391.800007,77.343948 392.699993,77.343934 393.600014,77.343934 394.500000,77.343934 395.399986,77.343919 396.300007,77.343919 397.199993,77.343919 398.100014,77.343905 398.950871,77.343905 398.950871,77.343905 399.000000,77.343905 399.899986,77.338346 400.800007,77.252736 401.699993,77.100983 402.600014,77.054657 403.500000,77.053951 403.500687,77.053951 403.500687,77.053951 404.399986,77.053951 405.300007,77.053937 406.199993,77.053937 407.100014,77.053937 408.000000,77.053923 408.899986,77.053923 409.800007,77.053923 410.699993,77.053908 411.600014,77.053908 412.500000,77.053908 413.399986,77.053894 414.300007,77.053894 415.199993,77.053894 416.100014,77.053879 417.000000,77.053879 417.899986,77.053879 418.800007,77.053865 419.699993,77.053865 420.600014,77.053865 421.500000,77.053851 422.399986,77.053851 423.300007,77.053851 424.199993,77.053836 425.100014,77.053836 426.000000,77.053836 426.899986,77.053822 427.800007,77.053822 428.699993,77.053822 429.600014,77.053807 430.500000,77.053807 431.399986,77.053807 432.300007,77.053793 433.199993,77.053793 434.100014,77.053793 435.000000,77.053779 435.899986,77.053779 436.800007,77.053779 437.699993,77.053764 438.600014,77.053764 439.500000,77.053764 440.399986,77.053750 441.300007,77.053750 442.199993,77.053750 443.100014,77.053735 443.999348,77.053735 443.999348,77.053735 444.000000,77.053735 444.899986,77.049905 445.800007,76.984512 446.699993,76.859905 447.600014,76.823256 448.461342,76.822867 448.461342,76.822867 448.500000,76.822867 449.399986,76.822852 450.300007,76.822852 451.199993,76.822852 452.100014,76.822838 453.000000,76.822838 453.899986,76.822838 454.800007,76.822824 455.699993,76.822824 456.600014,76.822824 457.500000,76.822809 458.399986,76.822809 459.300007,76.822809 460.199993,76.822795 461.100014,76.822795 462.000000,76.822795 462.899986,76.822780 463.800007,76.822780 464.699993,76.822780 465.600014,76.822766 466.500000,76.822766 467.399986,76.822766 468.300007,76.822752 469.199993,76.822752 470.100014,76.822752 471.000000,76.822737 471.899986,76.822737 472.800007,76.822737 473.699993,76.822723 474.600014,76.822723 475.500000,76.822708 476.399986,76.822708 477.300007,76.822708 478.199993,76.822694 479.100014,76.822694 480.000000,76.822694 480.899986,76.822680 481.800007,76.822680 482.699993,76.822680 483.600014,76.822665 484.500000,76.822665 485.399986,76.822665 486.300007,76.822651 487.199993,76.822651 488.100014,76.822636 489.000000,76.822636 489.038692,76.822636 489.038692,76.822636 489.899986,76.820361 490.800007,76.765884 491.699993,76.662503 492.600014,76.638814 493.429482,76.638483 493.429482,76.638483 493.500000,76.638483 494.399986,76.638483 495.300007,76.638469 496.199993,76.638469 497.100014,76.638469 498.000000,76.638454 498.899986,76.638454 499.800007,76.638454 500.699993,76.638440 501.600014,76.638440 502.500000,76.638425 503.399986,76.638425 504.300007,76.638425 505.199993,76.638411 506.100014,76.638411 507.000000,76.638411 507.899986,76.638397 508.800007,76.638397 509.699993,76.638397 510.600014,76.638382 511.500000,76.638382 512.399986,76.638382 513.300007,76.638368 514.199993,76.638368 515.100014,76.638368 516.000000,76.638353 516.899986,76.638353 517.800007,76.638353 518.699993,76.638339 519.600014,76.638339 520.500000,76.638339 521.399986,76.638325 522.300007,76.638325 523.199993,76.638325 524.100014,76.638310 525.000000,76.638310 525.000000,76.638310"/>
	<polyline fill="none" stroke="rgb(238,46,47)" stroke-width="1" stroke-opacity="1" clip-path="url(#clipArea1)" points="75.000000,206.999976 75.031514,206.939574 75.031514,206.939574 75.900000,196.715857 76.800000,182.010465 77.700000,170.133624 78.600000,160.985941 79.500000,154.332829 80.400000,149.947626 81.300000,147.623464 82.200000,147.173020 83.100000,148.419929 84.000000,151.195269 84.900000,155.333144 85.800000,160.667655 86.700000,167.029320 87.600000,174.239544 88.500000,182.093920 89.400000,190.253373 90.300000,195.406151 90.561794,195.686204 90.561794,195.686204 91.200000,196.422931 92.100000,197.603012 93.000000,198.931288 93.899999,200.386813 94.800000,201.946631 95.700000,203.586143 96.600001,205.279494 97.500000,206.999977 98.399999,208.720461 99.300000,210.413812 100.200000,212.053324 101.100001,213.613142 102.000000,215.068667 102.899999,216.396943 103.800000,217.577024 104.700000,218.590298 105.600001,219.420787 106.500000,220.055391 107.399999,220.484104 108.300000,220.700163 109.200000,220.700163 110.100001,220.484104 111.000000,220.055391 111.899999,219.420787 112.799998,218.590298 113.700002,217.577024 114.600001,216.396943 115.500000,215.068667 116.399999,213.613142 117.299998,212.053324 118.200002,210.413812 119.100001,208.720461 120.000000,206.999977 120.899999,205.279494 121.799998,203.586143 122.700002,201.946631 123.600001,200.386813 124.500000,198.931288 125.399999,197.603012 126.299998,196.422931 126.938227,195.686184 126.938227,195.686184 127.200002,195.406084 128.100001,190.777617 129.000000,185.629044 129.899999,183.130693 130.799998,183.045700 131.700002,184.993518 132.600001,188.546383 133.500000,192.953292 134.399999,194.579075 134.491997,194.655269 134.491997,194.655269 135.299998,195.409657 136.200002,196.422931 137.100001,197.603012 138.000000,198.931288 138.899999,200.386813 139.799998,201.946631 140.700002,203.586143 141.600001,205.279494 142.500000,206.999978 143.399999,208.720461 144.299998,210.413812 145.200002,212.053324 146.100001,213.613142 147.000000,215.068667 147.900003,216.396943 148.799998,217.577024 149.700002,218.590298 150.599997,219.420787 151.500000,220.055391 152.400003,220.484104 153.299998,220.700164 154.200002,220.700164 155.099997,220.484104 156.000000,220.055391 156.900003,219.420787 157.799998,218.590298 158.700002,217.577024 159.599997,216.396943 160.500000,215.068667 161.400003,213.613142 162.299998,212.053324 163.200002,210.413812 164.099997,208.720461 165.000000,206.999978 165.900003,205.279494 166.799998,203.586143 167.700002,201.946631 168.599997,200.386813 169.500000,198.931288 170.400003,197.603012 171.299998,196.422931 172.200002,195.409657 173.008029,194.655247 173.008029,194.655247 173.099997,194.579075 174.000000,193.014494 174.900003,189.696944 175.799998,188.450987 176.700002,189.332173 177.599997,191.835704 178.500000,193.927726 179.059333,194.315308 179.059333,194.315308 179.400003,194.579168 180.299998,195.409657 181.200002,196.422931 182.099997,197.603012 183.000000,198.931288 183.900003,200.386813 184.799998,201.946631 185.700002,203.586143 186.599997,205.279494 187.500000,206.999978 188.400003,208.720461 189.299998,210.413812 190.200002,212.053324 191.099997,213.613142 192.000000,215.068667 192.900003,216.396943 193.799998,217.577024 194.700002,218.590298 195.599997,219.420787 196.500000,220.055391 197.400003,220.484104 198.299998,220.700164 199.200002,220.700164 200.099997,220.484104 201.000000,220.055391 201.900003,219.420787 202.799998,218.590298 203.700002,217.577024 204.599997,216.396943 205.500000,215.068667 206.400003,213.613142 207.299998,212.053324 208.200002,210.413812 209.099997,208.720461 210.000000,206.999978 210.900003,205.279494 211.799998,203.586143 212.700002,201.946631 213.599997,200.386813 214.500000,198.931288 215.400003,197.603012 216.299998,196.422931 217.200002,195.409657 218.099997,194.579168 218.440693,194.315287 218.440693,194.315287 219.000000,193.927820 219.900003,192.046278 220.800007,190.537122 221.699993,190.994399 222.599997,192.895328 223.500000,193.943288 223.838585,194.159618 223.838585,194.159618 224.400003,194.579168 225.300007,195.409657 226.199993,196.422931 227.099997,197.603012 228.000000,198.931288 228.900003,200.386813 229.800007,201.946631 230.699993,203.586143 231.599997,205.279494 232.500000,206.999978 233.400003,208.720461 234.300007,210.413812 235.199993,212.053324 236.099997,213.613142 237.000000,215.068667 237.900003,216.396943 238.800007,217.577024 239.699993,218.590298 240.599997,219.420787 241.500000,220.055391 242.400003,220.484104 243.300007,220.700164 244.199993,220.700164 245.099997,220.484104 246.000000,220.055391 246.900003,219.420787 247.800007,218.590298 248.699993,217.577024 249.599997,216.396943 250.500000,215.068667 251.400003,213.613142 252.300007,212.053324 253.199993,210.413812 254.099997,208.720461 255.000000,206.999978 255.900003,205.279494 256.800007,203.586143 257.699993,201.946631 258.599997,200.386813 259.500000,198.931288 260.400003,197.603012 261.300007,196.422931 262.199993,195.409657 263.099997,194.579168 263.661449,194.159596 263.661449,194.159596 264.000000,193.943293 264.900003,192.943372 265.800007,191.525449 266.699993,191.792866 267.599997,193.260582 268.500000,193.944283 268.709221,194.074031 268.709221,194.074031 269.400003,194.579168 270.300007,195.409657 271.199993,196.422931 272.099997,197.603012 273.000000,198.931288 273.900003,200.386813 274.800007,201.946631 275.699993,203.586143 276.599997,205.279494 277.500000,206.999978 278.400003,208.720461 279.300007,210.413812 280.199993,212.053324 281.099997,213.613142 282.000000,215.068667 282.900003,216.396943 283.800007,217.577024 284.699993,218.590298 285.599997,219.420787 286.500000,220.055391 287.400003,220.484104 288.300007,220.700164 289.199993,220.700164 290.099997,220.484104 291.000000,220.055391 291.900003,219.420787 292.800007,218.590298 293.699993,217.577024 294.599997,216.396943 295.500000,215.068667 296.400003,213.613142 297.300007,212.053324 298.199993,210.413812 299.099997,208.720461 300.000000,206.999978 300.900003,205.279494 301.800007,203.586143 302.699993,201.946631 303.599997,200.386813 304.500000,198.931288 305.400003,197.603012 306.300007,196.422931 307.199993,195.409657 308.099997,194.579168 308.790813,194.074008 308.790813,194.074008 309.000000,193.944283 309.900003,193.268920 310.800007,192.048469 311.699993,192.222738 312.599997,193.394595 313.500000,193.944481 313.616301,194.015164 313.616301,194.015164 314.400003,194.579168 315.300007,195.409657 316.199993,196.422931 317.099997,197.603012 318.000000,198.931288 318.900003,200.386813 319.800007,201.946631 320.699993,203.586143 321.599997,205.279494 322.500000,206.999978 323.400003,208.720461 324.300007,210.413812 325.199993,212.053324 326.099997,213.613142 327.000000,215.068667 327.900003,216.396943 328.800007,217.577024 329.699993,218.590298 330.599997,219.420787 331.500000,220.055391 332.400003,220.484104 333.300007,220.700164 334.199993,220.700164 335.099997,220.484104 336.000000,220.055391 336.900003,219.420787 337.800007,218.590298 338.699993,217.577024 339.599997,216.396943 340.500000,215.068667 341.400003,213.613142 342.300007,212.053324 343.199993,210.413812 344.099997,208.720461 345.000000,206.999978 345.900003,205.279494 346.800007,203.586143 347.699993,201.946631 348.599997,200.386813 349.500000,198.931288 350.400003,197.603012 351.300007,196.422931 352.199993,195.409657 353.099997,194.579168 353.883734,194.015142 353.883734,194.015142 354.000000,193.944481 354.900003,193.398356 355.800007,192.383792 356.699993,192.498408 357.599997,193.449266 358.500000,193.944541 358.549164,193.973986 358.549164,193.973986 359.400003,194.579168 360.300007,195.409657 361.199993,196.422931 362.099997,197.603012 363.000000,198.931288 363.899986,200.386813 364.800007,201.946631 365.699993,203.586143 366.600014,205.279494 367.500000,206.999978 368.399986,208.720461 369.300007,210.413812 370.199993,212.053324 371.100014,213.613142 372.000000,215.068667 372.899986,216.396943 373.800007,217.577024 374.699993,218.590298 375.600014,219.420787 376.500000,220.055391 377.399986,220.484104 378.300007,220.700164 379.199993,220.700164 380.100014,220.484104 381.000000,220.055391 381.899986,219.420787 382.800007,218.590298 383.699993,217.577024 384.600014,216.396943 385.500000,215.068667 386.399986,213.613142 387.300007,212.053324 388.199993,210.413812 389.100014,208.720461 390.000000,206.999978 390.899986,205.279494 391.800007,203.586143 392.699993,201.946631 393.600014,200.386813 394.500000,198.931288 395.399986,197.603012 396.300007,196.422931 397.199993,195.409657 398.100014,194.579168 398.950871,193.973965 398.950871,193.973965 399.000000,193.944541 399.899986,193.450586 400.800007,192.595762 401.699993,192.675197 402.600014,193.473484 403.500000,193.944564 403.500687,193.944969 403.500687,193.944969 404.399986,194.579168 405.300007,195.409657 406.199993,196.422931 407.100014,197.603012 408.000000,198.931288 408.899986,200.386813 409.800007,201.946631 410.699993,203.586143 411.600014,205.279494 412.500000,206.999978 413.399986,208.720461 414.300007,210.413812 415.199993,212.053324 416.100014,213.613142 417.000000,215.068667 417.899986,216.396943 418.800007,217.577024 419.699993,218.590298 420.600014,219.420787 421.500000,220.055391 422.399986,220.484104 423.300007,220.700164 424.199993,220.700164 425.100014,220.484104 426.000000,220.055391 426.899986,219.420787 427.800007,218.590298 428.699993,217.577024 429.600014,216.396943 430.500000,215.068667 431.399986,213.613142 432.300007,212.053324 433.199993,210.413812 434.100014,208.720461 435.000000,206.999978 435.899986,205.279494 436.800007,203.586143 437.699993,201.946631 438.600014,200.386813 439.500000,198.931288 440.399986,197.603012 441.300007,196.422931 442.199993,195.409657 443.100014,194.579168 443.999348,193.944948 443.999348,193.944948 444.000000,193.944564 444.899986,193.473794 445.800007,192.733012 446.699993,192.791654 447.600014,193.486357 448.461342,193.921860 448.461342,193.921860 448.500000,193.944564 449.399986,194.579168 450.300007,195.409657 451.199993,196.422931 452.100014,197.603012 453.000000,198.931288 453.899986,200.386813 454.800007,201.946631 455.699993,203.586143 456.600014,205.279494 457.500000,206.999978 458.399986,208.720461 459.300007,210.413812 460.199993,212.053324 461.100014,213.613142 462.000000,215.068667 462.899986,216.396943 463.800007,217.577024 464.699993,218.590298 465.600014,219.420787 466.500000,220.055391 467.399986,220.484104 468.300007,220.700164 469.199993,220.700164 470.100014,220.484104 471.000000,220.055391 471.899986,219.420787 472.800007,218.590298 473.699993,217.577024 474.600014,216.396943 475.500000,215.068667 476.399986,213.613142 477.300007,212.053324 478.199993,210.413812 479.100014,208.720461 480.000000,206.999978 480.899986,205.279494 481.800007,203.586143 482.699993,201.946631 483.600014,200.386813 484.500000,198.931288 485.399986,197.603012 486.300007,196.422931 487.199993,195.409657 488.100014,194.579168 489.000000,193.944564 489.038692,193.921838 489.038692,193.921838 489.899986,193.486492 490.800007,192.833615 491.699993,192.877417 492.600014,193.493857 493.429482,193.903422 493.429482,193.903422 493.500000,193.944564 494.399986,194.579168 495.300007,195.409657 496.199993,196.422931 497.100014,197.603012 498.000000,198.931288 498.899986,200.386813 499.800007,201.946631 500.699993,203.586143 501.600014,205.279494 502.500000,206.999978 503.399986,208.720461 504.300007,210.413812 505.199993,212.053324 506.100014,213.613142 507.000000,215.068667 507.899986,216.396943 508.800007,217.577024 509.699993,218.590298 510.600014,219.420787 511.500000,220.055391 512.399986,220.484104 513.300007,220.700164 514.199993,220.700164 515.100014,220.484104 516.000000,220.055391 516.899986,219.420787 517.800007,218.590298 518.699993,217.577024 519.600014,216.396943 520.500000,215.068667 521.399986,213.613142 522.300007,212.053324 523.199993,210.413812 524.100014,208.720461 525.000000,206.999978 525.000000,206.999978"/>
	<polyline fill="none" stroke="rgb(0,140,72)" stroke-width="1" stroke-opacity="1" clip-path="url(#clipArea1)" points="75.000000,207.000024 75.031514,206.396000 75.031514,206.396000 75.900000,198.358824 76.800000,194.437362 77.700000,188.279568 78.600000,180.269256 79.500000,170.911596 80.400000,160.685760 81.300000,150.029039 82.200000,139.333466 83.100000,128.951187 84.000000,119.195198 84.900000,110.341487 85.800000,102.630309 86.700000,96.268644 87.600000,91.435079 88.500000,88.296545 89.400000,87.117743 90.300000,91.100333 90.561794,93.862302 90.561794,93.862302 91.200000,101.229567 92.100000,113.030374 93.000000,126.313141 93.899999,140.868385 94.800000,156.466562 95.700000,172.861684 96.600001,189.795188 97.500000,207.000023 98.399999,224.204857 99.300000,241.138363 100.200000,257.533484 101.100001,273.131666 102.000000,287.686910 102.899999,300.969670 103.800000,312.770476 104.700000,322.903217 105.600001,331.208105 106.500000,337.554138 107.399999,341.841277 108.300000,344.001867 109.200000,344.001867 110.100001,341.841277 111.000000,337.554138 111.899999,331.208105 112.799998,322.903217 113.700002,312.770476 114.600001,300.969670 115.500000,287.686910 116.399999,273.131666 117.299998,257.533484 118.200002,241.138363 119.100001,224.204857 120.000000,207.000023 120.899999,189.795188 121.799998,172.861684 122.700002,156.466562 123.600001,140.868385 124.500000,126.313141 125.399999,113.030374 126.299998,101.229567 126.938227,93.862101 126.938227,93.862101 127.200002,91.100398 128.100001,86.593500 129.000000,84.761421 129.899999,82.543934 130.799998,80.252270 131.700002,78.304446 132.600001,77.128243 133.500000,77.437177 134.399999,82.792039 134.491997,83.552947 134.491997,83.552947 135.299998,91.096826 136.200002,101.229567 137.100001,113.030374 138.000000,126.313141 138.899999,140.868385 139.799998,156.466562 140.700002,172.861684 141.600001,189.795188 142.500000,207.000022 143.399999,224.204857 144.299998,241.138363 145.200002,257.533484 146.100001,273.131666 147.000000,287.686910 147.900003,300.969670 148.799998,312.770476 149.700002,322.903217 150.599997,331.208105 151.500000,337.554138 152.400003,341.841277 153.299998,344.001867 154.200002,344.001867 155.099997,341.841277 156.000000,337.554138 156.900003,331.208105 157.799998,322.903217 158.700002,312.770476 159.599997,300.969670 160.500000,287.686910 161.400003,273.131666 162.299998,257.533484 163.200002,241.138363 164.099997,224.204857 165.000000,207.000022 165.900003,189.795188 166.799998,172.861684 167.700002,156.466562 168.599997,140.868385 169.500000,126.313141 170.400003,113.030374 171.299998,101.229567 172.200002,91.096826 173.008029,83.552731 173.008029,83.552731 173.099997,82.792039 174.000000,77.375975 174.900003,75.977688 175.799998,74.846977 176.700002,73.965797 177.599997,73.838929 178.500000,76.462740 179.059333,80.153338 179.059333,80.153338 179.400003,82.791953 180.299998,91.096826 181.200002,101.229567 182.099997,113.030374 183.000000,126.313141 183.900003,140.868385 184.799998,156.466562 185.700002,172.861684 186.599997,189.795188 187.500000,207.000022 188.400003,224.204857 189.299998,241.138363 190.200002,257.533484 191.099997,273.131666 192.000000,287.686910 192.900003,300.969670 193.799998,312.770476 194.700002,322.903217 195.599997,331.208105 196.500000,337.554138 197.400003,341.841277 198.299998,344.001867 199.200002,344.001867 200.099997,341.841277 201.000000,337.554138 201.900003,331.208105 202.799998,322.903217 203.700002,312.770476 204.599997,300.969670 205.500000,287.686910 206.400003,273.131666 207.299998,257.533484 208.200002,241.138363 209.099997,224.204857 210.000000,207.000022 210.900003,189.795188 211.799998,172.861684 212.700002,156.466562 213.599997,140.868385 214.500000,126.313141 215.400003,113.030374 216.299998,101.229567 217.200002,91.096826 218.099997,82.791953 218.440693,80.153122 218.440693,80.153122 219.000000,76.462653 219.900003,73.628350 220.800007,72.760836 221.699993,72.303563 222.599997,72.779298 223.500000,76.447173 223.838585,78.596445 223.838585,78.596445 224.400003,82.791953 225.300007,91.096826 226.199993,101.229567 227.099997,113.030374 228.000000,126.313141 228.900003,140.868385 229.800007,156.466562 230.699993,172.861684 231.599997,189.795188 232.500000,207.000022 233.400003,224.204857 234.300007,241.138363 235.199993,257.533484 236.099997,273.131666 237.000000,287.686910 237.900003,300.969670 238.800007,312.770476 239.699993,322.903217 240.599997,331.208105 241.500000,337.554138 242.400003,341.841277 243.300007,344.001867 244.199993,344.001867 245.099997,341.841277 246.000000,337.554138 246.900003,331.208105 247.800007,322.903217 248.699993,312.770476 249.599997,300.969670 250.500000,287.686910 251.400003,273.131666 252.300007,257.533484 253.199993,241.138363 254.099997,224.204857 255.000000,207.000022 255.900003,189.795188 256.800007,172.861684 257.699993,156.466562 258.599997,140.868385 259.500000,126.313141 260.400003,113.030374 261.300007,101.229567 262.199993,91.096826 263.099997,82.791953 263.661449,78.596229 263.661449,78.596229 264.000000,76.447173 264.900003,72.731258 265.800007,71.772517 266.699993,71.505100 267.599997,72.414044 268.500000,76.446179 268.709221,77.740566 268.709221,77.740566 269.400003,82.791953 270.300007,91.096826 271.199993,101.229567 272.099997,113.030374 273.000000,126.313141 273.900003,140.868385 274.800007,156.466562 275.699993,172.861684 276.599997,189.795188 277.500000,207.000022 278.400003,224.204857 279.300007,241.138363 280.199993,257.533484 281.099997,273.131666 282.000000,287.686910 282.900003,300.969670 283.800007,312.770476 284.699993,322.903217 285.599997,331.208105 286.500000,337.554138 287.400003,341.841277 288.300007,344.001867 289.199993,344.001867 290.099997,341.841277 291.000000,337.554138 291.900003,331.208105 292.800007,322.903217 293.699993,312.770476 294.599997,300.969670 295.500000,287.686910 296.400003,273.131666 297.300007,257.533484 298.199993,241.138363 299.099997,224.204857 300.000000,207.000022 300.900003,189.795188 301.800007,172.861684 302.699993,156.466562 303.599997,140.868385 304.500000,126.313141 305.400003,113.030374 306.300007,101.229567 307.199993,91.096826 308.099997,82.791953 308.790813,77.740350 308.790813,77.740350 309.000000,76.446179 309.900003,72.405706 310.800007,71.249491 311.699993,71.075231 312.599997,72.280033 313.500000,76.445992 313.616301,77.151903 313.616301,77.151903 314.400003,82.791953 315.300007,91.096826 316.199993,101.229567 317.099997,113.030374 318.000000,126.313141 318.900003,140.868385 319.800007,156.466562 320.699993,172.861684 321.599997,189.795188 322.500000,207.000022 323.400003,224.204857 324.300007,241.138363 325.199993,257.533484 326.099997,273.131666 327.000000,287.686910 327.900003,300.969670 328.800007,312.770476 329.699993,322.903217 330.599997,331.208105 331.500000,337.554138 332.400003,341.841277 333.300007,344.001867 334.199993,344.001867 335.099997,341.841277 336.000000,337.554138 336.900003,331.208105 337.800007,322.903217 338.699993,312.770476 339.599997,300.969670 340.500000,287.686910 341.400003,273.131666 342.300007,257.533484 343.199993,241.138363 344.099997,224.204857 345.000000,207.000022 345.900003,189.795188 346.800007,172.861684 347.699993,156.466562 348.599997,140.868385 349.500000,126.313141 350.400003,113.030374 351.300007,101.229567 352.199993,91.096826 353.099997,82.791953 353.883734,77.151687 353.883734,77.151687 354.000000,76.445977 354.900003,72.276275 355.800007,70.914176 356.699993,70.799563 357.599997,72.225354 358.500000,76.445920 358.549164,76.740122 358.549164,76.740122 359.400003,82.791953 360.300007,91.096826 361.199993,101.229567 362.099997,113.030374 363.000000,126.313141 363.899986,140.868385 364.800007,156.466562 365.699993,172.861684 366.600014,189.795188 367.500000,207.000022 368.399986,224.204857 369.300007,241.138363 370.199993,257.533484 371.100014,273.131666 372.000000,287.686910 372.899986,300.969670 373.800007,312.770476 374.699993,322.903217 375.600014,331.208105 376.500000,337.554138 377.399986,341.841277 378.300007,344.001867 379.199993,344.001867 380.100014,341.841277 381.000000,337.554138 381.899986,331.208105 382.800007,322.903217 383.699993,312.770476 384.600014,300.969670 385.500000,287.686910 386.399986,273.131666 387.300007,257.533484 388.199993,241.138363 389.100014,224.204857 390.000000,207.000022 390.899986,189.795188 391.800007,172.861684 392.699993,156.466562 393.600014,140.868385 394.500000,126.313141 395.399986,113.030374 396.300007,101.229567 397.199993,91.096826 398.100014,82.791953 398.950871,76.739906 398.950871,76.739906 399.000000,76.445920 399.899986,72.224044 400.800007,70.702201 401.699993,70.622768 402.600014,72.201147 403.500000,76.445905 403.500687,76.449952 403.500687,76.449952 404.399986,82.791953 405.300007,91.096826 406.199993,101.229567 407.100014,113.030374 408.000000,126.313141 408.899986,140.868385 409.800007,156.466562 410.699993,172.861684 411.600014,189.795188 412.500000,207.000022 413.399986,224.204857 414.300007,241.138363 415.199993,257.533484 416.100014,273.131666 417.000000,287.686910 417.899986,300.969670 418.800007,312.770476 419.699993,322.903217 420.600014,331.208105 421.500000,337.554138 422.399986,341.841277 423.300007,344.001867 424.199993,344.001867 425.100014,341.841277 426.000000,337.554138 426.899986,331.208105 427.800007,322.903217 428.699993,312.770476 429.600014,300.969670 430.500000,287.686910 431.399986,273.131666 432.300007,257.533484 433.199993,241.138363 434.100014,224.204857 435.000000,207.000022 435.899986,189.795188 436.800007,172.861684 437.699993,156.466562 438.600014,140.868385 439.500000,126.313141 440.399986,113.030374 441.300007,101.229567 442.199993,91.096826 443.100014,82.791953 443.999348,76.449736 443.999348,76.449736 444.000000,76.445905 444.899986,72.200830 445.800007,70.564950 446.699993,70.506311 447.600014,72.188273 448.461342,76.218867 448.461342,76.218867 448.500000,76.445905 449.399986,82.791953 450.300007,91.096826 451.199993,101.229567 452.100014,113.030374 453.000000,126.313141 453.899986,140.868385 454.800007,156.466562 455.699993,172.861684 456.600014,189.795188 457.500000,207.000022 458.399986,224.204857 459.300007,241.138363 460.199993,257.533484 461.100014,273.131666 462.000000,287.686910 462.899986,300.969670 463.800007,312.770476 464.699993,322.903217 465.600014,331.208105 466.500000,337.554138 467.399986,341.841277 468.300007,344.001867 469.199993,344.001867 470.100014,341.841277 471.000000,337.554138 471.899986,331.208105 472.800007,322.903217 473.699993,312.770476 474.600014,300.969670 475.500000,287.686910 476.399986,273.131666 477.300007,257.533484 478.199993,241.138363 479.100014,224.204857 480.000000,207.000022 480.899986,189.795188 481.800007,172.861684 482.699993,156.466562 483.600014,140.868385 484.500000,126.313141 485.399986,113.030374 486.300007,101.229567 487.199993,91.096826 488.100014,82.791953 489.000000,76.445905 489.038692,76.218637 489.038692,76.218637 489.899986,72.188129 490.800007,70.464348 491.699993,70.420542 492.600014,72.180771 493.429482,76.034484 493.429482,76.034484 493.500000,76.445905 494.399986,82.791953 495.300007,91.096826 496.199993,101.229567 497.100014,113.030374 498.000000,126.313141 498.899986,140.868385 499.800007,156.466562 500.699993,172.861684 501.600014,189.795188 502.500000,207.000022 503.399986,224.204857 504.300007,241.138363 505.199993,257.533484 506.100014,273.131666 507.000000,287.686910 507.899986,300.969670 508.800007,312.770476 509.699993,322.903217 510.600014,331.208105 511.500000,337.554138 512.399986,341.841277 513.300007,344.001867 514.199993,344.001867 515.100014,341.841277 516.000000,337.554138 516.899986,331.208105 517.800007,322.903217 518.699993,312.770476 519.600014,300.969670 520.500000,287.686910 521.399986,273.131666 522.300007,257.533484 523.199993,241.138363 524.100014,224.204857 525.000000,207.000022 525.000000,207.000022"/>
</svg>
